<?xml version="1.0" encoding="utf-8"?>
<!-- Generator: Adobe Illustrator 16.0.4, SVG Export Plug-In . SVG Version: 6.00 Build 0)  -->
<!DOCTYPE svg PUBLIC "-//W3C//DTD SVG 1.1//EN" "http://www.w3.org/Graphics/SVG/1.1/DTD/svg11.dtd">
<svg version="1.1" id="Layer_1" xmlns="http://www.w3.org/2000/svg" xmlns:xlink="http://www.w3.org/1999/xlink" x="0px" y="0px"
	 width="512px" height="512px" viewBox="0 0 512 512" enable-background="new 0 0 512 512" xml:space="preserve">
<circle fill="#FAFAFA" cx="256" cy="256" r="160"/>
<path fill="#1976D2" d="M256,504C119,504,8,393,8,256S119,8,256,8s248,111,248,248S393,504,256,504z M372,212H256v-70.9
	c0-10.7-13-16.1-20.5-8.5L121.2,247.5c-4.7,4.7-4.7,12.2,0,16.9L235.5,379.3c7.6,7.601,20.5,2.2,20.5-8.5V300h116
	c6.6,0,12-5.4,12-12v-64C384,217.4,378.6,212,372,212z"/>
</svg>
