<svg xmlns="http://www.w3.org/2000/svg" width="645.179" height="645.152" viewBox="10.406 1 645.179 645.152"><path d="M181.459 273.521L82.079 120.81C143.997 43.804 236.872 1.398 331.829 1.008c55.023-.39 111.217 13.658 162.338 43.186 56.454 32.78 99.38 79.868 126.696 133.98l-267.051-14.048c-75.575-4.423-147.508 38.113-172.353 109.395zm42.796 50.081c0 60.096 48.649 108.745 108.745 108.745 60.096 0 108.745-48.649 108.745-108.745 0-60.096-48.649-108.745-108.745-108.745-60.096-.001-108.745 48.518-108.745 108.745zm409.616-116.03l-181.72 9.366c49.3 57.625 50.08 140.744 8.585 204.482L314.919 645.675c60.486 3.252 122.794-10.016 179.248-42.796 139.704-80.649 196.288-249.75 139.704-395.307zm-449.55 177.947L62.958 146.825c-33.17 50.73-52.552 111.607-52.552 176.776 0 161.297 118.111 294.887 272.514 318.562l82.859-162.338c-74.925 14.049-147.248-27.055-181.458-94.306z"/></svg>