<svg xmlns="http://www.w3.org/2000/svg" width="645.188" height="629.067" viewBox="0 0 645.188 629.067"><path d="M215.8 506.524c0 2.602-2.992 4.683-6.764 4.683-4.292.391-7.285-1.691-7.285-4.683 0-2.602 2.992-4.683 6.764-4.683 3.902-.39 7.285 1.691 7.285 4.683zm-40.455-5.853c-.911 2.602 1.691 5.593 5.593 6.374 3.382 1.301 7.285 0 8.065-2.602.781-2.602-1.691-5.594-5.593-6.765-3.382-.909-7.154.391-8.065 2.993zm57.495-2.212c-3.772.911-6.374 3.383-5.983 6.374.39 2.602 3.772 4.293 7.674 3.382 3.772-.91 6.374-3.382 5.984-5.983-.391-2.472-3.903-4.163-7.675-3.773zM318.432 0C138.013 0 0 136.972 0 317.391c0 144.257 90.794 267.701 220.482 311.146 16.65 2.992 22.503-7.284 22.503-15.739 0-8.064-.39-52.552-.39-79.868 0 0-91.055 19.512-110.176-38.763 0 0-14.829-37.853-36.162-47.608 0 0-29.788-20.423 2.081-20.032 0 0 32.39 2.602 50.21 33.56 28.487 50.211 76.226 35.771 94.827 27.187 2.992-20.812 11.447-35.251 20.812-43.836-72.713-8.065-146.078-18.602-146.078-143.736 0-35.771 9.886-53.723 30.699-76.616-3.382-8.455-14.439-43.316 3.382-88.323 27.187-8.455 89.754 35.121 89.754 35.121 26.016-7.284 53.982-11.057 81.689-11.057 27.706 0 55.673 3.772 81.688 11.057 0 0 62.567-43.706 89.754-35.121 17.821 45.137 6.765 79.868 3.382 88.323 20.812 23.024 33.561 40.975 33.561 76.616 0 125.525-76.616 135.541-149.33 143.736 11.968 10.276 22.113 29.788 22.113 60.356 0 43.836-.39 98.078-.39 108.745 0 8.455 5.983 18.731 22.503 15.739 130.078-43.186 218.271-166.63 218.271-310.887C645.188 136.972 498.85 0 318.432 0zM126.436 448.64c-1.691 1.301-1.301 4.292.911 6.764 2.081 2.081 5.073 2.992 6.764 1.301 1.691-1.301 1.301-4.292-.91-6.764-2.082-2.082-5.074-2.993-6.765-1.301zm-14.048-10.536c-.911 1.69.39 3.771 2.992 5.072 2.081 1.301 4.683.911 5.593-.91.911-1.691-.39-3.772-2.992-5.073-2.602-.781-4.683-.39-5.593.911zm42.145 46.307c-2.081 1.69-1.301 5.593 1.691 8.064 2.992 2.992 6.764 3.382 8.455 1.301 1.691-1.69.911-5.593-1.691-8.064-2.862-2.992-6.764-3.382-8.455-1.301zm-14.829-19.122c-2.082 1.301-2.082 4.684 0 7.675 2.081 2.992 5.593 4.293 7.284 2.992 2.081-1.691 2.081-5.073 0-8.065-1.821-2.992-5.203-4.292-7.284-2.602z"/></svg>