<svg xmlns="http://www.w3.org/2000/svg" height="42" viewBox="0 -0.001 70.866 42.781" xml:space="preserve">
<path fill="#00377B" d="M14.004,40.936c0,0.444,0.018,0.893,0.029,1.338l-0.049,0.078c-0.68,0.224-1.292,0.428-2.291,0.428
	c-0.602,0-1.02-0.088-1.301-0.164c-0.379-0.108-1.089-0.342-1.662-1.078c-0.437-0.562-0.68-1.33-0.68-2.243
	c0-0.649,0.147-1.438,0.494-2.048c0.77-1.301,1.983-1.611,3.09-1.611c1.008,0,1.658,0.271,2.066,0.446l0.049,0.058
	c-0.078,0.584-0.096,0.736-0.145,1.34l-0.078,0.03c-0.457-0.303-0.894-0.595-1.631-0.595c-1.223,0-2.048,0.836-2.048,2.37
	c0,0.729,0.272,2.165,1.774,2.165c0.273,0,0.467-0.051,0.729-0.106c0.02-0.883,0.011-1.116-0.076-2.069l0.049-0.058l1.649-0.028
	l0.049,0.059c-0.009,0.496-0.018,0.98-0.018,1.467L14.004,40.936 M24.354,42.631c-0.74,0-0.897,0.01-1.509,0.027l-0.056-0.055
	c0-0.315,0.009-0.642,0.009-0.955c0-0.352-0.009-1.621-0.027-1.926c-0.027-0.332-0.075-0.88-0.583-0.88
	c-0.296,0-0.518,0.157-0.711,0.287c0.007,1.656,0.018,2.017,0.072,3.444l-0.054,0.056c-0.741,0-0.881,0-1.547,0.027l-0.057-0.056
	c0.012-0.592,0.019-1.184,0.02-1.776c0-1.511-0.057-2.095-0.13-2.9l0.055-0.063c0.695-0.092,0.852-0.12,1.565-0.27l0.093,0.064
	l-0.018,0.51c0.426-0.25,0.915-0.547,1.479-0.547c0.334,0,0.862,0.074,1.148,0.557c0.232,0.379,0.241,0.805,0.25,1.694v0.723
	c0.019,0.907,0.019,1.166,0.064,1.981L24.354,42.631 M30.001,40.177c0-0.362,0-1.86-1.295-2.37
	c-0.408-0.158-0.889-0.177-1.129-0.177c-1.612,0-2.52,0.861-2.52,2.563c0,0.594,0.094,1.195,0.436,1.695
	c0.239,0.36,0.693,0.86,2.019,0.86C29.474,42.75,30.001,41.566,30.001,40.177 M28.401,40.168c0,0.759-0.103,1.602-0.87,1.602
	c-0.193,0-0.379-0.076-0.518-0.211c-0.159-0.16-0.335-0.475-0.335-1.373c0-0.269,0-0.86,0.185-1.185
	c0.141-0.25,0.379-0.417,0.677-0.417c0.23,0.004,0.447,0.108,0.593,0.287C28.353,39.141,28.401,39.667,28.401,40.168L28.401,40.168z
	 M37.873,42.631c-0.648,0-0.852,0-1.547,0.027l-0.057-0.055c0.011-0.278,0.019-1.66,0.028-1.975c0-0.177,0.011-0.352,0.011-0.525
	c0-0.797-0.084-1.299-0.611-1.299c-0.277,0-0.482,0.131-0.64,0.231l0.009,0.937v0.342c0.01,1.121,0.019,1.379,0.073,2.261
	l-0.055,0.056c-0.639,0-0.834,0-1.536,0.036l-0.057-0.063c0.02-0.752,0.029-0.955,0.029-2.297c0-0.797-0.019-1.453-0.593-1.453
	c-0.231,0-0.445,0.121-0.64,0.26c0.011,1.609,0.019,2.035,0.084,3.463l-0.055,0.056c-0.77,0-0.973,0.009-1.567,0.027l-0.044-0.056
	c0-0.526,0.008-1.065,0.008-1.593c0-1.834-0.055-2.344-0.128-3.085l0.056-0.064c0.526-0.071,1.05-0.161,1.571-0.269l0.086,0.084
	v0.521c0.425-0.299,0.824-0.576,1.434-0.576c0.742,0,0.973,0.39,1.102,0.604c0.371-0.261,0.881-0.604,1.64-0.604
	c0.148,0,0.786,0,1.146,0.527c0.271,0.391,0.26,0.965,0.252,1.584v0.694c0,1.048,0.008,1.286,0.054,2.148L37.873,42.631
	 M42.918,41.271c-0.352,0.183-0.769,0.396-1.445,0.396c-0.556,0-0.935-0.177-1.157-0.51c-0.139-0.194-0.166-0.38-0.203-0.563
	l2.99-0.057l0.057-0.064c-0.01-0.453-0.019-0.916-0.148-1.379c-0.325-1.092-1.037-1.316-1.353-1.39
	c-0.214-0.059-0.436-0.087-0.657-0.084c-1.455,0-2.417,0.955-2.417,2.557c0,0.437,0.075,0.892,0.223,1.214
	c0.536,1.25,1.798,1.359,2.462,1.359c0.77,0,1.103-0.139,1.593-0.333l0.057-0.073l0.063-1.046L42.918,41.271 M40.113,39.611
	c0.027-0.286,0.092-0.676,0.444-0.896c0.11-0.07,0.24-0.106,0.371-0.104c0.304,0,0.49,0.16,0.591,0.324
	c0.132,0.205,0.14,0.426,0.14,0.641L40.113,39.611z M48.839,42.289c-0.108,0.064-0.219,0.127-0.332,0.184
	c-0.352,0.178-0.907,0.308-1.501,0.308c-2.072,0-3.137-1.558-3.137-3.382c0-1.711,1.055-3.434,3.192-3.434
	c0.937,0,1.37,0.223,1.742,0.407l0.045,0.073c-0.042,0.16-0.067,0.326-0.075,0.492l-0.062,0.045
	c-0.269-0.185-0.74-0.508-1.649-0.508c-1.843,0-2.556,1.572-2.556,2.924c0,1.612,1.037,2.861,2.604,2.861
	c0.342,0,0.686-0.064,1.027-0.205c0.352-0.146,0.509-0.275,0.721-0.451l0.075,0.045c-0.038,0.23-0.046,0.287-0.046,0.547
	L48.839,42.289 M49.701,38.593l0.073,0.037c0.417-0.214,0.704-0.353,1.316-0.353c0.647,0,0.851,0.314,0.907,0.428
	c0.064,0.146,0.073,0.359,0.083,0.609v0.121l-0.815,0.121c-0.517,0.082-1.175,0.193-1.592,0.564c-0.314,0.275-0.48,0.693-0.48,1.12
	c0,0.924,0.647,1.508,1.572,1.508c0.474,0,0.898-0.156,1.315-0.462l0.009,0.324l0.065,0.055l0.49-0.027l0.057-0.063
	c-0.057-0.862-0.075-1.122-0.057-2.371V39.63c0-0.907,0-1.11-0.268-1.405c-0.213-0.242-0.575-0.438-1.231-0.438
	c-0.611,0-1.001,0.158-1.372,0.306l-0.044,0.063L49.701,38.593 M52.081,39.898v1.861c-0.297,0.249-0.611,0.5-1.213,0.5
	c-0.759,0-1.094-0.564-1.094-1.046c0-0.491,0.362-0.761,0.438-0.815c0.259-0.193,0.554-0.268,1.369-0.424L52.081,39.898z
	 M54.376,42.641l-0.547,0.019l-0.045-0.056c0.009-0.509,0.02-0.742,0.02-1.141c0-0.48-0.011-0.972-0.02-1.452
	c-0.01-1.056-0.019-1.288-0.084-2.009l0.049-0.064l0.563-0.094l0.055,0.055l-0.037,0.482c0.389-0.24,0.926-0.594,1.676-0.594
	c0.176,0,0.722,0,1.113,0.438c0.331,0.359,0.331,0.812,0.34,1.518l0.019,0.943c0.011,0.974,0.019,1.121,0.055,1.897l-0.055,0.058
	l-0.556,0.019l-0.044-0.063c0.007-0.436,0.017-0.677,0.017-1.048c0-0.37-0.017-1.666-0.037-2.155
	c-0.009-0.215-0.027-0.547-0.222-0.779c-0.157-0.186-0.454-0.315-0.786-0.315c-0.694,0-1.241,0.418-1.501,0.621
	c0.01,1.565,0.019,1.927,0.084,3.666L54.376,42.641 M58.784,38.593l0.075,0.037c0.416-0.214,0.702-0.353,1.314-0.353
	c0.647,0,0.852,0.314,0.907,0.428c0.063,0.146,0.073,0.359,0.084,0.609v0.121l-0.817,0.121c-0.518,0.082-1.174,0.193-1.591,0.564
	c-0.314,0.275-0.481,0.693-0.481,1.12c0,0.924,0.649,1.508,1.574,1.508c0.473,0,0.896-0.156,1.315-0.462l0.009,0.324l0.064,0.055
	l0.491-0.027l0.056-0.063c-0.056-0.862-0.075-1.122-0.056-2.371V39.63c0-0.907,0-1.11-0.269-1.405
	c-0.214-0.242-0.574-0.438-1.232-0.438c-0.61,0-1,0.158-1.369,0.306l-0.048,0.063L58.784,38.593 M61.165,39.898v1.861
	c-0.297,0.249-0.611,0.5-1.214,0.5c-0.76,0-1.092-0.564-1.092-1.046c0-0.491,0.36-0.761,0.434-0.815
	c0.26-0.193,0.557-0.268,1.371-0.424L61.165,39.898z M66.043,42.604l0.056,0.056c0.222-0.019,0.268-0.019,0.49-0.019l0.056-0.047
	c-0.073-1.49-0.073-3.168-0.073-4.75c0-0.834,0.009-1.666,0.018-2.511l-0.056-0.056c-0.188,0.047-0.376,0.084-0.567,0.111
	l-0.062,0.057c0.062,0.557,0.062,0.712,0.084,2.416c-0.176-0.01-0.298-0.01-0.417-0.01c-0.676,0-1.64,0.056-2.287,0.678
	c-0.398,0.379-0.713,1.019-0.713,1.812c0,1.26,0.751,2.361,2.083,2.361c0.786,0,1.193-0.36,1.39-0.528v0.429 M66.034,41.631
	c-0.13,0.139-0.528,0.564-1.278,0.564c-1.027,0-1.583-0.844-1.583-1.889c0-0.521,0.139-1.371,1.019-1.77
	c0.426-0.188,0.897-0.212,1.314-0.212c0.232,0,0.335,0.008,0.492,0.019c0,0.832,0.027,2.155,0.036,2.98V41.631z M67.868,38.593
	l0.072,0.037c0.418-0.214,0.704-0.353,1.316-0.353c0.648,0,0.852,0.314,0.906,0.428c0.066,0.146,0.073,0.359,0.084,0.609v0.121
	l-0.815,0.121c-0.518,0.082-1.176,0.193-1.591,0.564c-0.316,0.275-0.482,0.693-0.482,1.12c0,0.924,0.647,1.508,1.574,1.508
	c0.472,0,0.897-0.156,1.314-0.462l0.01,0.324l0.063,0.055l0.49-0.027l0.057-0.063c-0.057-0.862-0.074-1.122-0.057-2.371V39.63
	c0-0.907,0-1.11-0.269-1.405c-0.212-0.242-0.572-0.438-1.23-0.438c-0.611,0-1,0.158-1.371,0.306l-0.045,0.063L67.868,38.593
	 M70.247,39.898v1.861c-0.296,0.249-0.612,0.5-1.214,0.5c-0.759,0-1.093-0.564-1.093-1.046c0-0.491,0.361-0.761,0.437-0.815
	c0.26-0.193,0.556-0.268,1.369-0.424L70.247,39.898z M19.216,40.473c-0.011-0.453-0.009-0.979-0.139-1.304
	c-0.112-0.276-0.622-0.987-1.828-0.536c-0.012,0.006-0.037,0.014-0.049,0.03c-0.017,0.024,0.012,0.045,0.012,0.045
	c0.318,0.14,0.502,0.396,0.502,0.867l-1.545,0.036c0,0-0.061-0.336,0.151-0.772c0.171-0.354,0.6-0.854,1.466-1.026
	c0.345-0.056,0.411-0.018,0.451-0.027c0.004-0.002,0.045-0.02,0.006-0.041c-0.029-0.02-0.062-0.032-0.096-0.037
	c-0.153-0.049-0.492-0.125-1.089-0.125c-1.452,0-2.416,0.994-2.416,2.596c0,0.437,0.073,0.891,0.221,1.213
	c0.538,1.25,1.796,1.36,2.463,1.36c0.768,0,1.103-0.138,1.592-0.333l0.055-0.073l0.066-1.046l-0.066-0.027
	c-0.351,0.184-0.768,0.396-1.444,0.396c-0.555,0-0.935-0.177-1.156-0.51c-0.14-0.194-0.168-0.379-0.205-0.563l2.992-0.057
	L19.216,40.473"/>
<path fill="#ED1C24" d="M7.205,27.393c-0.245-0.08-0.751-0.228-1.278-0.443c-1.388-0.572-2.68-1.398-2.646-2.776
	c0.03-1.317,1.233-2.138,3.414-2.565c2.39-0.467,5.888-0.822,7.657-1.724c1.744-0.783,1.577-2.802,0.528-3.749
	c-0.098-0.092-0.17-0.16-0.225-0.137c-0.075,0.031-0.057,0.093-0.026,0.192c0.091,0.276,0.217,0.792-0.031,1.226
	c-0.858,1.504-5.642,1.496-9.806,2.298c-3.44,0.665-4.868,2.302-4.789,4.096c0.083,1.866,1.865,3.27,4.34,3.656
	c0.988,0.153,2.333,0.224,2.81,0.152c0.125-0.019,0.162-0.062,0.158-0.125C7.307,27.441,7.287,27.42,7.205,27.393"/>
<path fill="#00377B" d="M2.327,19.372c0.794-0.285,1.861-0.545,3.644-0.827c0.253-0.042,0.504-0.086,0.65-0.113
	c0.067-0.013,0.096-0.047,0.105-0.079c0.021-0.075-0.017-0.121-0.145-0.153c-0.151-0.038-0.4-0.077-0.596-0.128
	c-1.942-0.458-2.22-1.029-2.232-1.611c-0.006-0.331,0.145-0.673,0.556-0.959c0.541-0.374,1.457-0.581,1.988-0.694
	c3.726-0.783,9.341-0.904,9.341-5.943c0-2.013-1.248-3.293-2.332-3.975c-0.808-0.507-1.538-0.66-1.538-0.66v1.98
	c0,0,1.171,0.793,1.171,2.317c0,1.71-0.688,3.576-4.59,4.385c-2.452,0.511-4.219,0.863-5.466,1.393
	c-1.255,0.532-2.036,1.505-2.135,2.41C0.658,17.529,0.861,18.626,2.327,19.372 M14.58,20.813c-0.767,0.359-1.706,0.668-3.204,0.964
	c-0.379,0.076-0.645,0.116-0.805,0.148c-0.13,0.025-0.161,0.084-0.139,0.147c0.018,0.049,0.058,0.066,0.171,0.092
	c0.18,0.041,0.467,0.093,0.814,0.192c0.856,0.262,1.409,0.62,1.721,0.973c0.309,0.352,0.461,0.782,0.461,1.29
	c0,0.595-0.187,1.109-0.562,1.546c-0.51,0.556-1.356,1.015-2.541,1.373c-0.582,0.175-1.377,0.332-2.306,0.418v1.577
	c2.352-0.131,4.662-0.704,5.955-1.547c1.48-0.961,2.224-2.243,2.224-3.845c0-0.95-0.26-1.769-0.794-2.443
	C15.235,21.265,14.896,21.021,14.58,20.813"/>
<path fill="#ED1C24" d="M4.355,12.763c0.794-0.24,2.898-0.685,2.898-0.685c0.052-0.011,0.104-0.021,0.11-0.074
	c0.006-0.043-0.009-0.088-0.069-0.105c-0.067-0.021-0.797-0.171-1.501-0.634c-0.942-0.619-1.672-1.519-1.628-2.833
	c0.062-1.753,1.506-2.858,3.17-3.372c1.508-0.464,2.883-0.669,3.743-1.222c1.632-1.047,1.461-2.785,0.545-3.659
	c-0.125-0.121-0.208-0.208-0.275-0.172c-0.061,0.031-0.052,0.104-0.018,0.195c0.083,0.212,0.269,0.736,0.027,1.212
	C10.905,2.297,8.422,2.611,6.55,3.01C4.055,3.543,2.716,4.351,1.728,5.57c-0.59,0.73-0.96,1.792-0.96,2.862
	C0.768,10.84,2.613,12.105,4.355,12.763"/>
</svg>
