<svg xmlns="http://www.w3.org/2000/svg" width="624.375" height="643.887" viewBox="0 0 624.375 643.887"><path d="M621.903 294.237c-.91-5.854-1.821-9.235-1.821-9.235s-2.341 2.602-6.113 7.674c-1.171-13.918-3.643-27.576-7.545-41.104-4.812-16.78-11.057-33.04-18.861-48.649-4.942-10.406-10.666-20.292-17.3-29.658-2.342-3.512-4.813-7.024-7.284-10.276-11.447-18.731-24.715-30.309-39.935-52.031-9.886-16.65-16.78-34.991-20.032-54.113-4.162 11.577-7.414 23.414-9.625 35.511-15.74-15.869-29.268-27.056-37.593-34.73C415.47 19.642 420.152 0 420.152 0s-75.836 84.681-43.056 172.874c11.316 29.918 30.958 56.063 56.454 75.315 31.738 26.275 66.079 46.828 84.16 99.64-14.568-27.707-36.552-50.991-63.479-66.99 8.065 19.122 12.228 39.804 12.098 60.486 0 79.348-64.519 143.736-143.866 143.606-10.797 0-21.463-1.171-31.869-3.643a134.18 134.18 0 0 1-35.642-12.097c-16.78-10.146-31.219-23.545-42.666-39.414l-.26-.391 2.602.911c5.983 2.081 11.967 3.642 18.211 4.812 24.325 5.203 49.82 2.212 72.323-8.585 22.764-12.617 36.422-21.983 47.608-18.211h.261c10.927 3.512 19.512-7.154 11.707-18.211-13.528-17.43-35.642-26.016-57.495-22.113-22.763 3.252-43.576 19.512-73.364 3.772-1.951-1.04-3.772-2.081-5.593-3.252-2.081-1.171 6.374 1.69 4.423.39-6.504-3.252-12.748-7.023-18.731-11.187-.39-.39 4.553 1.431 4.032 1.041-7.674-5.203-14.309-11.968-19.512-19.772-5.333-9.625-5.854-21.333-1.301-31.349 2.732-4.943 7.024-8.975 12.098-11.316 3.902 1.951 6.244 3.382 6.244 3.382s-1.691-3.252-2.732-4.943c.391-.13.65 0 1.041-.26 3.382 1.431 10.796 5.203 14.829 7.544 2.732 1.431 4.943 3.512 6.764 6.114 0 0 1.301-.65.39-3.512-1.431-3.512-3.772-6.504-7.024-8.585h.26c2.992 1.561 5.854 3.382 8.585 5.333a41.655 41.655 0 0 0 3.382-18.211c.26-3.382-.26-6.894-1.431-10.146-1.041-2.081.65-2.862 2.471-.65-.26-1.691-.91-3.252-1.561-4.813v-.13s1.041-1.431 1.561-1.951a23.866 23.866 0 0 1 4.423-3.512 191.138 191.138 0 0 1 29.528-15.089c8.325-3.643 15.219-6.374 16.65-7.285 2.081-1.301 4.032-2.862 5.854-4.553 6.895-5.854 11.707-14.048 13.268-23.024.131-1.17.261-2.341.391-3.642v-1.951c-1.171-4.553-8.976-7.935-49.95-11.837-14.438-2.341-26.016-13.138-29.268-27.447v-.13a104.132 104.132 0 0 1 40.064-49.82c1.041-.911-4.163.26-3.122-.65 3.512-1.691 7.024-3.252 10.667-4.553 1.821-.781-7.805-4.423-16.39-3.512-5.203.26-10.406 1.561-15.219 3.642 2.081-1.691 8.064-4.032 6.634-4.032-10.927 2.081-21.463 6.114-31.089 11.707 0-1.041.13-1.951.65-2.862-7.674 3.252-14.309 8.455-19.512 14.959.13-1.171.26-2.341.26-3.512-3.512 2.602-6.764 5.593-9.496 8.976l-.13.13c-22.634-8.715-47.219-10.796-71.023-6.114l-.26-.13h.26c-4.943-4.032-9.235-8.715-12.618-14.179l-.26.13-.521-.26c-1.561-2.341-3.122-4.943-4.813-7.805-1.17-2.081-2.341-4.423-3.512-6.764a.28.28 0 0 0-.26-.26c-.521 0-.781 2.211-1.171 1.691v-.13c-4.163-10.796-6.114-22.374-5.724-34.081l-.26.13c-6.634 4.553-11.707 11.187-14.439 18.861-1.17 2.731-2.081 4.292-2.862 5.854v-.65c.13-1.431.781-4.292.65-4.033-.13.26-.26.391-.39.521-1.951 2.211-3.772 4.813-5.073 7.544-1.171 2.472-2.211 5.073-2.992 7.675-.13.39 0-.39 0-1.301s.13-2.602 0-2.211l-.39.911A192.31 192.31 0 0 0 54.5 164.157c-.521 3.642-.781 7.285-.65 10.796v.26c-6.244 6.764-11.707 14.309-16.52 22.244-15.74 26.536-27.447 55.283-34.861 85.331a207.274 207.274 0 0 1 18.601-32.649A301.81 301.81 0 0 0 0 360.967c2.341-11.187 5.463-22.113 9.105-32.909-2.211 44.877 6.374 89.623 25.235 130.468 25.235 56.584 67.12 104.062 120.062 136.192 21.593 14.568 45.137 25.885 69.982 33.56a872.753 872.753 0 0 0 10.016 3.513c-1.041-.391-2.082-.911-3.122-1.301 29.398 8.845 60.096 13.397 90.794 13.397 108.876 0 144.777-41.495 148.029-45.527 5.333-4.812 9.756-10.666 12.878-17.3a312.844 312.844 0 0 1 6.373-2.732l1.301-.65 2.472-1.17c16.39-7.675 31.869-17.431 45.918-28.748 21.202-15.219 36.292-37.332 42.796-62.567 3.902-9.235 4.032-19.512.52-28.877 1.171-1.821 2.212-3.643 3.513-5.594 23.414-37.593 36.682-80.519 38.503-124.745v-3.642c0-9.497-.78-18.862-2.472-28.098zM232.97 167.281c-.52 1.431-1.17 2.992-1.691 4.553a63.869 63.869 0 0 1 1.691-4.553z"/></svg>