<svg xmlns="http://www.w3.org/2000/svg" width="288.827" height="375" viewBox="0 0 288.827 375"><path fill="#fdfdfd" d="M222.045 110.723c-14.181 28.526-43.614 48.132-77.632 48.132-34.017 0-63.45-19.606-77.631-48.132H7.102v192.553h264.786V110.723h-49.843z"/><path fill="#fdfdfd" d="M80.206 278.725c-4.4 0-8 3.6-8 8v8.551c0 4.4 3.6 8 8 8h138.042c4.4 0 8 3.6 8 8v3.254c0 4.4-3.6 8-8 8H80.206c-4.4 0-8 3.6-8 8V367c0 4.4 3.6 8 8 8h200.621c4.4 0 8-3.6 8-8v-80.275c0-4.4-3.6-8-8-8H80.206z"/><circle fill="#fdfdfd" cx="144.413" cy="72.207" r="72.207"/><path fill="#fdfdfd" d="M10 110.723c-5.5 0-10 4.5-10 10v172.553c0 5.5 4.5 10 10 10h12.276c5.5 0 10-4.5 10-10V120.723c0-5.5-4.5-10-10-10H10zM274.1 110.723c-5.5 0-10 4.5-10 10v172.553c0 5.5 4.5 10 10 10h4.728c5.5 0 10-4.5 10-10V120.723c0-5.5-4.5-10-10-10H274.1z"/><defs><filter id="a" filterUnits="userSpaceOnUse" x="31.739" y="188.824" width="227.112" height="75"><feColorMatrix values="1 0 0 0 0 0 1 0 0 0 0 0 1 0 0 0 0 0 1 0"/></filter></defs><mask maskUnits="userSpaceOnUse" x="31.739" y="188.824" width="227.112" height="75" id="d"><g filter="url(#a)"><linearGradient id="b" gradientUnits="userSpaceOnUse" x1="32.552" y1="226.323" x2="145.298" y2="226.323"><stop offset=".14"/><stop offset="1" stop-color="#fff"/></linearGradient><path fill="url(#b)" d="M32.552 175.025h112.746v102.597H32.552z"/><linearGradient id="c" gradientUnits="userSpaceOnUse" x1="158.296" y1="462.176" x2="271.04" y2="462.176" gradientTransform="rotate(180 208.169 344.25)"><stop offset=".14"/><stop offset="1" stop-color="#fff"/></linearGradient><path fill="url(#c)" d="M145.298 175.025h112.744v102.597H145.298z"/></g></mask><g mask="url(#d)" fill="#777"><path d="M212.607 263.823c-14.838 0-20.733-18.008-25.935-33.895-2.242-6.851-6.905-21.094-10.073-21.094-.469 0-1.794.474-3.984 4.861l-1.535-.765c1.979-3.966 3.732-5.812 5.52-5.812 4.079 0 7.714 10.086 11.704 22.271 5.02 15.338 10.708 32.717 24.304 32.717 11.439 0 17.29-12.281 21.909-25.552l1.62.563c-4.827 13.871-11.02 26.706-23.53 26.706zM140.591 263.823c-14.833 0-20.729-18-25.93-33.881-2.245-6.859-6.907-21.107-10.079-21.107-.47 0-1.798.474-3.985 4.861l-1.536-.765c1.977-3.966 3.731-5.812 5.521-5.812 4.084 0 7.717 10.089 11.705 22.275 5.024 15.34 10.715 32.712 24.304 32.712 11.435 0 17.287-12.274 21.907-25.539l1.62.564c-4.829 13.864-11.021 26.692-23.527 26.692zM68.569 263.823c-14.839 0-20.735-18.007-25.938-33.895-2.248-6.858-6.911-21.094-10.078-21.094v-1.715c4.079 0 7.713 10.079 11.702 22.257 5.028 15.352 10.719 32.73 24.315 32.73 11.438 0 17.29-12.281 21.911-25.552l1.62.563c-4.83 13.871-11.023 26.706-23.532 26.706z"/><path d="M68.569 245.525c-4.083 0-7.717-10.084-11.707-22.267-5.023-15.341-10.713-32.721-24.31-32.721v-1.714c14.839 0 20.735 18.007 25.938 33.895 2.243 6.85 6.906 21.092 10.078 21.092 3.167 0 7.832-14.244 10.074-21.089 1.051-3.209 2.13-6.504 3.304-9.709l1.611.589c-1.164 3.179-2.239 6.458-3.277 9.63-3.998 12.21-7.633 22.294-11.711 22.294zM140.591 245.525c-4.079 0-7.715-10.088-11.705-22.273-5.02-15.334-10.709-32.714-24.304-32.714-4.864 0-8.994 2.171-12.626 6.635l-1.331-1.081c3.978-4.891 8.542-7.268 13.957-7.268 14.838 0 20.733 18.007 25.935 33.895 2.242 6.845 6.907 21.092 10.075 21.092 3.168 0 7.832-14.242 10.073-21.085.989-3.023 2.107-6.441 3.295-9.697l1.611.586c-1.178 3.23-2.291 6.636-3.272 9.638-3.994 12.188-7.628 22.272-11.708 22.272zM212.607 245.525c-4.082 0-7.715-10.088-11.703-22.273-5.021-15.334-10.711-32.714-24.305-32.714-4.864 0-8.994 2.171-12.625 6.635l-1.33-1.081c3.976-4.891 8.541-7.268 13.955-7.268 14.839 0 20.734 18.007 25.935 33.895 2.241 6.847 6.902 21.092 10.073 21.092 3.166 0 7.829-14.236 10.069-21.077l.024-.074c1.037-3.168 2.109-6.441 3.276-9.632l1.611.589c-1.156 3.162-2.224 6.423-3.256 9.577l-.021.059c-3.991 12.192-7.626 22.272-11.703 22.272zM235.99 197.173l-1.329-1.081c3.979-4.891 8.545-7.268 13.954-7.268 3.628 0 6.973 1.128 9.938 3.353l-1.029 1.372c-2.702-2.024-5.614-3.011-8.909-3.011-4.861 0-8.991 2.171-12.625 6.635zM257.225 225.521c-3.732-11.071-6.629-16.686-8.609-16.686-.469 0-1.796.474-3.981 4.861l-1.535-.765c1.975-3.966 3.728-5.812 5.517-5.812 2.995 0 5.961 5.172 10.236 17.853l-1.628.549z"/><path d="M186.026 263.823c-14.836 0-20.729-18.008-25.933-33.895-2.245-6.857-6.909-21.094-10.074-21.094-3.17 0-7.833 14.248-10.074 21.094-1.045 3.193-2.125 6.492-3.297 9.703l-1.612-.587c1.163-3.186 2.238-6.471 3.278-9.646 3.99-12.189 7.624-22.278 11.706-22.278 4.077 0 7.712 10.08 11.699 22.259 5.025 15.35 10.716 32.729 24.308 32.729 4.865 0 8.996-2.172 12.629-6.638l1.33 1.082c-3.979 4.892-8.547 7.271-13.96 7.271zM114.012 263.823c-14.836 0-20.731-18.004-25.934-33.888-2.243-6.853-6.905-21.101-10.077-21.101-3.167 0-7.83 14.233-10.07 21.071l-.042.13c-1.034 3.156-2.103 6.419-3.265 9.597l-1.61-.588c1.151-3.15 2.215-6.4 3.245-9.542l.035-.107c3.997-12.197 7.63-22.275 11.708-22.275 4.083 0 7.717 10.089 11.706 22.275 5.022 15.336 10.712 32.712 24.305 32.712 4.864 0 8.994-2.172 12.625-6.638l1.331 1.082c-3.977 4.893-8.543 7.272-13.957 7.272zM41.988 263.823c-3.635 0-6.984-1.131-9.951-3.359l1.03-1.371c2.701 2.028 5.619 3.015 8.921 3.015 4.861 0 8.99-2.169 12.624-6.631l1.331 1.083c-3.982 4.887-8.547 7.263-13.955 7.263zM41.988 245.525c-2.997 0-5.965-5.177-10.249-17.869l1.626-.549c3.739 11.083 6.641 16.703 8.623 16.703.47 0 1.797-.474 3.983-4.858l1.536.767c-1.976 3.962-3.73 5.806-5.519 5.806z"/><path d="M114.012 245.525c-4.083 0-7.717-10.088-11.706-22.273-5.023-15.336-10.712-32.714-24.305-32.714-11.438 0-17.293 12.281-21.915 25.553l-1.62-.564c4.831-13.869 11.025-26.703 23.535-26.703 14.835 0 20.732 18.003 25.933 33.889 2.243 6.851 6.906 21.098 10.078 21.098.469 0 1.796-.474 3.984-4.858l1.535.767c-1.976 3.961-3.731 5.805-5.519 5.805zM186.026 245.525c-4.08 0-7.713-10.088-11.703-22.273-5.019-15.334-10.709-32.714-24.304-32.714-11.437 0-17.29 12.281-21.911 25.553l-1.62-.564c4.83-13.869 11.022-26.703 23.531-26.703 14.838 0 20.733 18.007 25.935 33.895 2.242 6.847 6.903 21.092 10.072 21.092.471 0 1.798-.474 3.986-4.858l1.535.767c-1.977 3.961-3.732 5.805-5.521 5.805zM258.04 245.525c-4.079 0-7.714-10.088-11.699-22.273-5.021-15.334-10.713-32.714-24.303-32.714-11.437 0-17.287 12.274-21.907 25.539l-1.62-.565c4.827-13.86 11.019-26.688 23.527-26.688 14.834 0 20.729 18.007 25.933 33.895 2.24 6.847 6.9 21.092 10.069 21.092v1.714z"/><path d="M258.04 263.823c-14.834 0-20.729-18.004-25.928-33.888-2.242-6.853-6.903-21.101-10.074-21.101-3.166 0-7.833 14.248-10.075 21.094l-.059.173c-1.027 3.135-2.09 6.375-3.241 9.53l-1.611-.587c1.141-3.129 2.2-6.357 3.223-9.478l.057-.173c3.993-12.186 7.629-22.274 11.707-22.274 4.082 0 7.715 10.089 11.701 22.275 5.021 15.336 10.711 32.712 24.301 32.712v1.717z"/></g></svg>