<svg id="Layer_1" xmlns="http://www.w3.org/2000/svg" height="42" viewBox="0 0 116.044 50">
  <style>
    .st0{fill:#f58025}.st1{fill:#013a81}
  </style>
  <path class="st0" d="M8.281 31.494c-.278-.093-.863-.263-1.467-.513-1.596-.657-3.083-1.606-3.044-3.19.037-1.515 1.418-2.457 3.926-2.949 2.748-.538 6.77-.946 8.803-1.982 2.005-.9 1.813-3.222.605-4.309-.11-.106-.191-.186-.256-.158-.085.035-.066.105-.03.221.106.319.249.911-.037 1.409-.984 1.729-6.485 1.721-11.272 2.643-3.954.763-5.597 2.645-5.504 4.707.094 2.146 2.142 3.759 4.99 4.204 1.133.177 2.681.257 3.227.174.146-.021.188-.07.183-.142-.005-.059-.029-.085-.124-.115"/>
  <path class="st1" d="M2.677 22.27c.911-.326 2.137-.624 4.187-.95.292-.047.579-.096.746-.131.079-.014.112-.053.123-.09.025-.085-.02-.138-.166-.176-.175-.043-.462-.088-.687-.147-2.232-.526-2.552-1.185-2.565-1.852-.006-.381.166-.774.638-1.103.622-.433 1.677-.669 2.287-.798 4.282-.902 10.739-1.042 10.739-6.834 0-2.313-1.435-3.785-2.683-4.57-.928-.581-1.767-.757-1.767-.757V7.14s1.346.91 1.346 2.663c0 1.967-.792 4.112-5.276 5.042-2.819.585-4.852.992-6.286 1.599-1.442.611-2.34 1.731-2.454 2.771-.103.938.132 2.2 1.818 3.055M16.76 23.929c-.878.411-1.958.767-3.681 1.108-.437.087-.74.134-.926.17-.149.03-.185.097-.159.171.021.055.067.075.197.104.207.049.538.106.936.221.984.301 1.621.713 1.976 1.118.357.406.534.9.534 1.483 0 .684-.215 1.275-.647 1.777-.588.642-1.561 1.167-2.92 1.578-.67.204-1.587.385-2.653.483v1.812c2.704-.149 5.36-.81 6.846-1.779 1.705-1.104 2.558-2.58 2.558-4.421 0-1.09-.299-2.032-.913-2.809-.395-.496-.784-.778-1.148-1.016"/>
  <path class="st0" d="M5.006 14.673c.913-.274 3.333-.786 3.333-.787.06-.009.119-.023.127-.085.004-.049-.012-.098-.081-.12-.078-.024-.917-.198-1.725-.728-1.083-.712-1.925-1.746-1.87-3.257.068-2.016 1.731-3.287 3.643-3.878 1.734-.532 3.313-.768 4.303-1.403 1.878-1.206 1.681-3.201.629-4.208-.146-.137-.24-.237-.318-.2-.071.036-.061.121-.019.226.094.245.308.848.029 1.395-.52 1.013-3.374 1.375-5.524 1.835-2.871.613-4.41 1.541-5.547 2.942-.678.839-1.102 2.059-1.102 3.29-.001 2.768 2.119 4.222 4.122 4.978"/>
  <g>
    <path class="st1" d="M65.545 47.403c0 .629.026 1.257.04 1.886l-.069.109c-.956.314-1.817.602-3.224.602a6.749 6.749 0 0 1-1.83-.233c-.532-.153-1.532-.479-2.337-1.517-.613-.791-.956-1.869-.956-3.154 0-.917.206-2.023.697-2.883 1.079-1.83 2.787-2.267 4.345-2.267 1.419 0 2.333.381 2.906.627l.071.081c-.11.822-.138 1.039-.206 1.887l-.108.042c-.643-.425-1.258-.835-2.296-.835-1.72 0-2.881 1.176-2.881 3.334 0 1.024.382 3.046 2.5 3.046.381 0 .654-.069 1.021-.15.028-1.241.017-1.571-.108-2.91l.07-.084 2.322-.041.068.084a102.51 102.51 0 0 0-.027 2.063l.002.313zM80.108 49.792c-1.042 0-1.263.011-2.123.037l-.079-.076c0-.445.013-.901.013-1.344 0-.494-.013-2.279-.039-2.708-.038-.469-.105-1.238-.821-1.238-.415 0-.729.221-1.002.404.012 2.33.024 2.84.104 4.848l-.079.078c-1.041 0-1.238 0-2.174.038l-.08-.077c.013-.836.027-1.67.027-2.502 0-2.123-.078-2.945-.181-4.079l.079-.089c.975-.131 1.197-.17 2.201-.38l.129.09-.024.717c.6-.351 1.29-.768 2.084-.768.469 0 1.213.104 1.615.783.326.535.34 1.132.352 2.386v1.014c.025 1.278.025 1.643.089 2.79l-.091.076zM85.802 46.326c0 1.068-.145 2.254-1.226 2.254-.338 0-.573-.158-.728-.3-.222-.221-.471-.664-.471-1.928 0-.378 0-1.212.261-1.668.195-.352.533-.585.951-.585.364 0 .664.194.835.404.313.377.378 1.117.378 1.823zm2.253.013c0-.509 0-2.62-1.825-3.333-.573-.225-1.25-.25-1.588-.25-2.27 0-3.544 1.212-3.544 3.607 0 .834.131 1.682.614 2.389.338.503.975 1.209 2.84 1.209 2.76 0 3.503-1.667 3.503-3.622zM99.128 49.792c-.91 0-1.197 0-2.175.037l-.079-.076c.014-.393.027-2.335.04-2.777 0-.249.014-.496.014-.743 0-1.119-.119-1.824-.859-1.824-.392 0-.681.182-.899.325l.012 1.316v.48c.013 1.577.025 1.942.102 3.181l-.077.078c-.898 0-1.172 0-2.162.052l-.078-.09c.026-1.057.04-1.344.04-3.235 0-1.119-.028-2.041-.836-2.041-.324 0-.625.167-.896.364.012 2.265.025 2.865.116 4.873l-.078.079c-1.081 0-1.367.011-2.201.037l-.065-.076c0-.742.014-1.501.014-2.243 0-2.579-.081-3.299-.184-4.339l.078-.089a35.485 35.485 0 0 0 2.214-.379l.118.119v.729c.599-.419 1.16-.81 2.019-.81 1.044 0 1.367.549 1.551.848.521-.365 1.237-.848 2.306-.848.208 0 1.106 0 1.613.743.381.548.367 1.356.354 2.229v.977c0 1.472.013 1.811.079 3.023l-.081.08zM102.555 44.841c.013 2.265.024 2.865.117 4.873l-.079.079c-1.082 0-1.367.011-2.201.037l-.064-.076c0-.742.013-1.501.013-2.243 0-2.579-.079-3.299-.183-4.339l.079-.089c.91-.131 1.197-.182 2.213-.379l.119.119v.729l-.014 1.289zM72.877 46.755c-.014-.638-.012-1.378-.195-1.835-.156-.387-.874-1.388-2.57-.753-.02.006-.054.016-.07.042-.025.036.016.063.016.063.446.194.708.556.708 1.22l-2.174.051s-.087-.473.211-1.085c.24-.501.845-1.206 2.061-1.449.488-.076.581-.021.636-.037.007 0 .063-.026.009-.058a.345.345 0 0 0-.135-.051c-.217-.07-.692-.178-1.531-.178-2.046 0-3.402 1.4-3.402 3.654 0 .612.103 1.251.312 1.706.755 1.758 2.527 1.917 3.467 1.917 1.08 0 1.55-.196 2.241-.471l.078-.103.088-1.473-.088-.038c-.496.26-1.083.559-2.036.559-.778 0-1.314-.248-1.627-.718-.196-.272-.233-.533-.284-.793l4.207-.078.078-.092zM109.208 48.081l.251 1.422-.026.07c.006.013-.009.066-.038.078-.465.19-1.235.325-2.094.325-2.4 0-3.917-1.423-3.917-3.568 0-1.985 1.426-3.697 4.22-3.697.587 0 1.253.096 1.782.278.024.008.029.016.041.049l.019.026-.327 1.473-.052.073c-.006.007-.033.027-.063.015-.293-.119-.698-.214-1.29-.214-1.221 0-2.021.794-2.008 1.903 0 1.278.959 1.919 2.063 1.919.532 0 .949-.083 1.3-.206.042-.015.04.035.08.02l.059.034zM110.435 49.344l.358-1.389.049-.033c.059-.02.041-.022.078-.004.464.25 1.311.506 1.941.506.707 0 .986-.221.986-.556 0-.358-.226-.517-1.085-.755-1.544-.419-2.174-1.223-2.162-2.097 0-1.319 1.166-2.306 2.993-2.306.835 0 1.597.183 2.052.391.028.013.038.047.044.054l.017.062-.342 1.332-.049.052c-.039.026-.049.032-.088.014-.355-.165-.98-.377-1.572-.377-.544 0-.872.187-.872.547 0 .341.313.515 1.229.776 1.412.402 2.021 1.063 2.033 2.148 0 1.25-1.006 2.266-3.174 2.266-.967 0-1.79-.202-2.382-.478-.029-.013-.014-.049-.039-.089l-.015-.064zM102.582 40.85c0 .637-.562 1.152-1.256 1.152-.696 0-1.258-.516-1.258-1.152 0-.637.562-1.152 1.258-1.152.693 0 1.256.515 1.256 1.152zM17.446 45.194c0 1.104-.26 2.871-1.545 3.937-.767.635-1.781.869-2.781.869-.663 0-2.013-.13-3-1.052-1.221-1.13-1.325-2.792-1.325-3.676 0-.441.039-.882.117-1.325.104-.545.389-2.052 1.974-2.96.701-.403 1.52-.547 2.325-.547.909 0 1.818.222 2.481.664.298.195.558.442.779.727.324.401.975 1.324.975 3.363zm-4.287-3.131c-.247 0-.597.052-.949.26-.609.39-.987 1.195-.987 2.753 0 1.169.117 3.273 1.922 3.273 1.508 0 1.922-1.402 1.872-3.351a7.926 7.926 0 0 0-.143-1.286c-.079-.376-.196-.754-.455-1.052a1.63 1.63 0 0 0-1.26-.597zM25.045 49.792c-1.039 0-1.26.013-2.118.039l-.078-.077c0-.442.013-.898.013-1.338 0-.493-.013-2.273-.039-2.702-.04-.468-.104-1.235-.82-1.235-.415 0-.727.221-.999.404.012 2.325.026 2.832.104 4.832l-.078.078c-1.04 0-1.234 0-2.17.039l-.078-.077c.013-.832.026-1.664.026-2.494 0-2.118-.078-2.935-.182-4.067l.078-.09c.975-.13 1.196-.168 2.196-.376l.13.091-.026.715c.597-.352 1.286-.767 2.079-.767.467 0 1.208.104 1.61.78.325.532.338 1.13.352 2.376v1.015c.025 1.273.025 1.636.09 2.779l-.09.075zM30.359 48.363l-.131 1.337-.091.092c-.455.078-.857.156-1.363.156-2.027 0-2.052-1.286-2.052-2.481 0-.336.012-.663.025-.987l.039-2.065-.818.027-.078-.078.117-1.391.078-.064.701.026-.012-1.625.051-.09a40.997 40.997 0 0 0 2.039-.558l.091.078-.039 2.181h1.297l.08.079-.13 1.391-.078.077-1.169-.052-.026 1.832c-.014.52-.014 1.234.026 1.571.026.195.078.611.741.611.22 0 .376-.053.598-.117l.104.05zM36.983 46.896c0 1.22 0 1.546.091 2.819l-.065.091c-.844-.014-1.13 0-2.065.04l-.077-.092v-.48c-.272.221-.833.689-1.806.689-1.274 0-2.273-.897-2.273-2.287 0-.583.247-1.325.974-1.78.78-.479 1.506-.623 3.065-.831 0-.195-.039-.428-.168-.558-.169-.169-.365-.248-.845-.248-.87 0-1.714.338-2.167.521l-.104-.052.064-1.417.077-.104c.743-.22 1.43-.429 2.547-.429 1.663 0 2.183.521 2.441.937.338.545.338 1.051.326 2.221l-.015.96zm-2.13-.469c-.884.118-1.91.261-1.91 1.118 0 .545.39.793.857.793.429 0 .78-.182 1.053-.338v-1.573zM42.153 45.039c-.182-.104-.312-.182-.533-.182-.884 0-.884.857-.884 1.442 0 .896.079 2.364.13 3.416l-.065.091c-1.039-.014-1.246 0-2.208.04l-.078-.079c.025-1.078.039-2.143.039-3.209 0-1.805-.039-2.39-.117-3.364l.078-.077a25.558 25.558 0 0 0 2.156-.39l.104.104-.039 1.195c.415-.961 1.013-1.26 1.545-1.26.091 0 .181.012.273.012l.078.092-.364 2.118-.115.051zM50.297 49.961c-1.857 0-2.494-.702-2.832-1.208-.481-.7-.611-1.545-.611-2.376 0-2.39 1.273-3.599 3.534-3.599.337 0 1.013.027 1.584.248 1.819.715 1.819 2.82 1.819 3.325.001 1.947-.74 3.61-3.494 3.61zm.87-5.443a1.089 1.089 0 0 0-.83-.401c-.416 0-.753.234-.948.583-.261.454-.261 1.286-.261 1.663 0 1.26.246 1.702.467 1.923.156.143.388.298.726.298 1.08 0 1.223-1.182 1.223-2.247.001-.702-.064-1.442-.377-1.819zM45.745 44.855c.014 2.266.026 2.865.117 4.874l-.078.078c-1.082 0-1.368.01-2.202.037l-.064-.077c0-.742.015-1.5.015-2.243 0-2.58-.081-3.297-.185-4.339l.08-.089a36.346 36.346 0 0 0 2.213-.379l.119.12v.729l-.015 1.289z"/>
    <ellipse class="st1" cx="44.515" cy="40.865" rx="1.257" ry="1.153"/>
  </g>
</svg>
