<?xml version="1.0" standalone="no"?>
<!DOCTYPE svg PUBLIC "-//W3C//DTD SVG 20010904//EN"
 "http://www.w3.org/TR/2001/REC-SVG-20010904/DTD/svg10.dtd">
<svg version="1.0" xmlns="http://www.w3.org/2000/svg"
 width="500.000000pt" height="500.000000pt" viewBox="0 0 500.000000 500.000000"
 preserveAspectRatio="xMidYMid meet">
<metadata>
Created by potrace 1.11, written by Peter Selinger 2001-2013
</metadata>
<g transform="translate(0.000000,500.000000) scale(0.100000,-0.100000)"
fill="#000000" stroke="none">
<path d="M365 4980 c-157 -50 -267 -151 -331 -305 l-29 -70 0 -2105 c0 -1743
2 -2111 14 -2140 52 -135 148 -253 248 -304 117 -59 -20 -55 2237 -55 1690 0
2082 2 2123 13 126 33 252 132 311 244 66 125 61 -48 61 2237 0 2258 4 2121
-55 2238 -37 72 -145 177 -219 212 -120 57 -2 54 -2235 54 -1996 -1 -2067 -1
-2125 -19z"/>
</g>
</svg>
